<svg id="Layer_1" xmlns="http://www.w3.org/2000/svg" viewBox="0 0 217.7 308.4"><style>.st0{fill:#fff}</style><path class="st0" d="M108.8 99.8c15 0 27.2-12.2 27.2-27.2s-12.2-27.2-27.2-27.2-27.2 12.2-27.2 27.2 12.2 27.2 27.2 27.2zm0-36.3c5 0 9.1 4.1 9.1 9.1s-4.1 9.1-9.1 9.1-9.1-4.1-9.1-9.1c.1-5 4.1-9.1 9.1-9.1zM0 0v308.4h217.7V0H0zm199.5 290.2H18.1V18.1h181.4v272.1zM108.8 263c35.1 0 63.5-28.4 63.5-63.5S143.9 136 108.8 136s-63.5 28.4-63.5 63.5c.1 35.1 28.5 63.5 63.5 63.5zm0-108.8c25.1 0 45.4 20.3 45.4 45.4 0 25.1-20.3 45.3-45.4 45.3-25.1 0-45.3-20.3-45.3-45.3 0-25.1 20.3-45.4 45.3-45.4zm0 63.5c10 0 18.1-8.1 18.1-18.1 0-10-8.1-18.1-18.1-18.1-10 0-18.1 8.1-18.1 18.1 0 10 8.1 18.1 18.1 18.1zm0 0"/></svg>