<svg id="Layer_1" xmlns="http://www.w3.org/2000/svg" viewBox="0 0 512 512"><style>.st0{fill:#fff}</style><path class="st0" d="M190 293.4h-34.8v-34.8c0-4.5-3.7-8.2-8.2-8.2h-39.2c-4.5 0-8.2 3.7-8.2 8.2v34.8H64.9c-4.5 0-8.2 3.7-8.2 8.2v39.2c0 4.5 3.7 8.2 8.2 8.2h34.8v34.8c0 4.5 3.7 8.2 8.2 8.2H147c4.5 0 8.2-3.7 8.2-8.2V349H190c4.5 0 8.2-3.7 8.2-8.2v-39.2c-.1-4.6-3.7-8.2-8.2-8.2zm-8.2 39.2H147c-4.5 0-8.2 3.7-8.2 8.2v34.8H116v-34.8c0-4.5-3.7-8.2-8.2-8.2H73v-22.9h34.8c4.5 0 8.2-3.7 8.2-8.2v-34.8h22.9v34.8c0 4.5 3.7 8.2 8.2 8.2h34.8v22.9zM278 293.4h-44c-4.5 0-8.2 3.7-8.2 8.2s3.7 8.2 8.2 8.2h44c4.5 0 8.2-3.7 8.2-8.2s-3.7-8.2-8.2-8.2z"/><path class="st0" d="M247.8 160.9h-20.1c-4.5 0-8.2 3.7-8.2 8.2v24.7h-92.1C57.2 193.8 0 250.9 0 321.2s57.2 127.4 127.4 127.4c46.7 0 89-25 111.5-65.7h34.2c22.5 40.6 64.8 65.7 111.5 65.7 70.3 0 127.4-57.2 127.4-127.4s-57.2-127.4-127.4-127.4h-92.1v-24.7c0-4.5-3.7-8.2-8.2-8.2h-20.1m120.4 271.3c-42.2 0-80.2-23.4-99.3-61.2-1.4-2.8-4.2-4.5-7.3-4.5h-44c-3.1 0-5.9 1.7-7.3 4.5-19 37.7-57 61.2-99.3 61.2-61.2 0-111.1-49.8-111.1-111.1S66.1 210 127.4 210h100.3c4.5 0 8.2-3.7 8.2-8.2v-24.7h40.2v16.5h-15.7c-4.5 0-8.2 3.7-8.2 8.2 0 4.5 3.7 8.2 8.2 8.2h124.2c61.2 0 111.1 49.8 111.1 111.1s-49.9 111.1-111.1 111.1z"/><path class="st0" d="M384.6 299.5c13.5 0 24.5-11 24.5-24.5s-11-24.5-24.5-24.5-24.5 11-24.5 24.5 11 24.5 24.5 24.5zm0-32.7c4.5 0 8.2 3.7 8.2 8.2s-3.7 8.2-8.2 8.2-8.2-3.7-8.2-8.2 3.7-8.2 8.2-8.2zM338.4 296.7c-13.5 0-24.5 11-24.5 24.5s11 24.5 24.5 24.5 24.5-11 24.5-24.5-11-24.5-24.5-24.5zm0 32.6c-4.5 0-8.2-3.7-8.2-8.2s3.7-8.2 8.2-8.2 8.2 3.7 8.2 8.2-3.7 8.2-8.2 8.2zM384.6 342.9c-13.5 0-24.5 11-24.5 24.5s11 24.5 24.5 24.5 24.5-11 24.5-24.5-11-24.5-24.5-24.5zm0 32.7c-4.5 0-8.2-3.7-8.2-8.2s3.7-8.2 8.2-8.2 8.2 3.7 8.2 8.2-3.7 8.2-8.2 8.2zM430.8 296.7c-13.5 0-24.5 11-24.5 24.5s11 24.5 24.5 24.5 24.5-11 24.5-24.5-11-24.5-24.5-24.5zm0 32.6c-4.5 0-8.2-3.7-8.2-8.2s3.7-8.2 8.2-8.2 8.2 3.7 8.2 8.2-3.7 8.2-8.2 8.2z"/></svg>