<svg id="Layer_1" xmlns="http://www.w3.org/2000/svg" viewBox="0 0 408.8 212.4"><style>.st0{fill:#fff}</style><path class="st0" d="M340 76.1c-4.7-13.7-9.1-25.4-12.8-34-5.8-13.2-9-17.3-13.7-17.8-4.3-.4-8.6-.8-12.9-1.1-3.5-.3-6.6 2.3-6.9 5.9-.3 3.5 2.3 6.6 5.9 6.9 3.6.3 7.2.6 10.7.9 2.8 4.1 9.5 18.9 19.1 47.7 9.1 27.4 17.1 56.3 20.7 75.3 1.3 6.9.1 11.6-3.5 13.8-8.9 5.4-20.2 6.6-23.4 6.7-29.6-12.7-72.9-20-119.1-20-46.1 0-89.2 7.3-118.8 19.9-3.5-.2-14.4-1.1-23.1-6.5-3.7-2.3-4.7-6.4-3.3-13.7 7.9-42.6 31.6-112.4 39-123.2C133 33.6 168.8 32 204 32c10 0 20.2.1 30.2.4 3.5.1 6.5-2.7 6.6-6.2.1-3.5-2.7-6.5-6.2-6.6-10.2-.3-20.4-.4-30.6-.4-36.3 0-73.1 1.7-109.4 5.1-4.8.4-8 4.6-13.7 17.9-3.7 8.6-8 20.3-12.6 34.1-9.8 29.3-18.2 60.5-22.1 81.4-2.4 12.6.7 21.7 9.2 26.9 14 8.6 31.4 8.4 31.5 8.4.7-.1 1.4-.2 2.1-.5 28-12.3 69.9-19.4 115-19.4 44.9 0 86.7 7 114.7 19.3 1 .5 2.4.7 4.4.7 2.4 0 5.6-.4 9.4-1.1 5.4-1 13.4-3.1 20.6-7.5 8.4-5.1 11.8-14.7 9.4-27.1-3.9-20.8-12.6-52-22.5-81.3zm-13.8 106.1c.9.9 1.6 2.2 1.7 3.8-.1-1.4-.7-2.8-1.7-3.8zm0 0"/><path class="st0" d="M258.9 33.3c5 .2 10.1.5 15.1.8h.4c3.4 0 6.2-2.6 6.4-6 .2-3.5-2.5-6.6-6-6.8-5.1-.3-10.2-.6-15.3-.8-3.5-.2-6.5 2.6-6.7 6.1-.2 3.6 2.6 6.5 6.1 6.7zm0 0"/><path class="st0" d="M389.6 45.1h-21.5c-.4-3.2-.9-6.5-1.3-9.7-1.9-13.8-14.2-26.2-27.5-27.8C294.5 2.6 249 0 204 0S113.5 2.6 68.7 7.6c-13.3 1.6-25.6 14-27.5 27.8-.4 3.2-.9 6.5-1.3 9.7H19.2C8.6 45.1 0 53.7 0 64.3v64c0 10.6 8.6 19.2 19.2 19.2h6.5c-1.5 10.6-3 21-4.5 31.3-1 6.6.7 13.1 4.8 18.5 4.1 5.5 10.2 9.1 17.1 10.1 13.8 1.9 27.9 3.5 42 4.9.8.1 1.6.1 2.4.1 3.7 0 7.3-.8 10.7-2.3 24.5-11.1 64-17.8 105.8-17.8s81.4 6.6 105.8 17.8c3.4 1.5 7 2.3 10.7 2.3.8 0 1.6 0 2.4-.1 14.1-1.4 28.2-3 42-4.9 6.9-1 12.9-4.5 17.1-10.1 4-5.4 5.7-12 4.8-18.5-1.5-10.2-3-20.7-4.5-31.3h7.3c10.6 0 19.2-8.6 19.2-19.2v-64c0-10.6-8.6-19.2-19.2-19.2zM19.2 134.7c-3.5 0-6.4-2.9-6.4-6.4v-64c0-3.5 2.9-6.4 6.4-6.4h19c-3.6 26.4-7.2 52-10.7 76.8h-8.3zm352.6 54.9c-2.1 2.8-5.1 4.6-8.6 5.1-13.6 1.8-27.6 3.5-41.6 4.8-2.2.2-4.4-.2-6.6-1.1-26.4-12-66.9-18.9-111.1-18.9s-84.7 6.9-111.1 18.9c-2.1 1-4.4 1.3-6.6 1.1-13.9-1.4-27.9-3-41.5-4.8-3.5-.5-6.5-2.3-8.6-5.1-2-2.6-2.8-5.8-2.4-9 6.5-44.7 13.2-93 20.1-143.5C55 29 62.6 21.2 70.2 20.3c44.3-5 89.3-7.5 133.8-7.5 44.5 0 89.6 2.5 133.8 7.5 7.6.9 15.2 8.7 16.3 16.8 6.9 50.5 13.6 98.8 20.1 143.5.4 3.2-.4 6.4-2.4 9zm24.2-61.3c0 3.5-2.9 6.4-6.4 6.4h-9.1c-3.5-24.8-7.1-50.5-10.7-76.8h19.8c3.5 0 6.4 2.9 6.4 6.4v64zm0 0"/></svg>