<svg id="Capa_1" xmlns="http://www.w3.org/2000/svg" viewBox="0 0 512 512"><style>.st0{fill:#fff}</style><path class="st0" d="M291 432.5H11.2C5 432.5 0 426.9 0 420s5-12.5 11.2-12.5H291c6.2 0 11.2 5.6 11.2 12.5s-5 12.5-11.2 12.5zM500.8 322.5H11.2C5 322.5 0 316.9 0 310s5-12.5 11.2-12.5h489.7c6.2 0 11.2 5.6 11.2 12.5s-5.1 12.5-11.3 12.5zM291 213.5H11.2C5 213.5 0 207.9 0 201s5-12.5 11.2-12.5H291c6.2 0 11.2 5.6 11.2 12.5s-5 12.5-11.2 12.5zM500.8 103.5H11.2C5 103.5 0 97.9 0 91s5-12.5 11.2-12.5h489.7c6.2 0 11.2 5.6 11.2 12.5s-5.1 12.5-11.3 12.5z"/></svg>