<?xml version="1.0" encoding="utf-8"?>
<!-- Generator: Adobe Illustrator 19.2.1, SVG Export Plug-In . SVG Version: 6.00 Build 0)  -->
<svg version="1.1" id="Layer_1" xmlns="http://www.w3.org/2000/svg" xmlns:xlink="http://www.w3.org/1999/xlink" x="0px" y="0px"
	 viewBox="0 0 273.4 305.2" style="enable-background:new 0 0 273.4 305.2;" xml:space="preserve">
<style type="text/css">
	.st0{clip-path:url(#SVGID_2_);fill:#FFFFFF;}
</style>
<g>
	<g>
		<defs>
			<rect id="SVGID_1_" width="273.8" height="306"/>
		</defs>
		<clipPath id="SVGID_2_">
			<use xlink:href="#SVGID_1_"  style="overflow:visible;"/>
		</clipPath>
		<path class="st0" d="M269.8,137.2c-2.3-1.9-5.3-2.7-8.2-2.2l-34.6,6.4v-21.8c0-5.5-4.5-10-10-10h-6.1
			c12.8-11.5,20.8-28.2,20.8-46.7c0-34.7-28.2-62.9-62.9-62.9c-22.2,0-41.7,11.6-52.9,29C104.6,11.6,85.1,0,62.9,0
			C28.2,0,0,28.2,0,62.9c0,18.5,8.1,35.2,20.8,46.7h-6.1c-5.5,0-10,4.5-10,10v119.6c0,5.5,4.5,10,10,10h78l-38.9,38.9
			c-3.9,3.9-3.9,10.2,0,14.1c3.9,3.9,10.2,3.9,14.1,0l47.8-47.8l47.9,47.8c2,2,4.5,2.9,7.1,2.9c2.6,0,5.1-1,7.1-2.9
			c3.9-3.9,3.9-10.2,0-14.1l-38.9-38.9h78c5.5,0,10-4.5,10-10v-21.8l34.6,6.4c0.6,0.1,1.2,0.2,1.8,0.2c2.3,0,4.6-0.8,6.4-2.3
			c2.3-1.9,3.6-4.7,3.6-7.7v-69.1C273.4,141.9,272.1,139.1,269.8,137.2L269.8,137.2z M168.8,20c23.7,0,42.9,19.3,42.9,42.9
			c0,23.7-19.3,42.9-42.9,42.9s-42.9-19.3-42.9-42.9S145.1,20,168.8,20L168.8,20z M115.8,96.9c3,4.7,6.7,9,10.8,12.8H105
			C109.2,105.9,112.8,101.6,115.8,96.9L115.8,96.9z M20,62.9C20,39.3,39.3,20,62.9,20s42.9,19.3,42.9,42.9
			c0,23.7-19.3,42.9-42.9,42.9S20,86.6,20,62.9L20,62.9z M206.9,229.2H24.8v-99.6h182.2V229.2z M253.4,202l-26.5-4.9v-35.3l26.5-4.9
			V202z M253.4,202"/>
	</g>
</g>
</svg>
