<svg id="Layer_1" xmlns="http://www.w3.org/2000/svg" xmlns:xlink="http://www.w3.org/1999/xlink" viewBox="0 0 273.4 305.2"><style>.st0{clip-path:url(#SVGID_2_);fill:#fff}</style><defs><path id="SVGID_1_" d="M0 0h273.8v306H0z"/></defs><clipPath id="SVGID_2_"><use xlink:href="#SVGID_1_" overflow="visible"/></clipPath><path class="st0" d="M269.8 137.2c-2.3-1.9-5.3-2.7-8.2-2.2l-34.6 6.4v-21.8c0-5.5-4.5-10-10-10h-6.1c12.8-11.5 20.8-28.2 20.8-46.7 0-34.7-28.2-62.9-62.9-62.9-22.2 0-41.7 11.6-52.9 29-11.3-17.4-30.8-29-53-29C28.2 0 0 28.2 0 62.9c0 18.5 8.1 35.2 20.8 46.7h-6.1c-5.5 0-10 4.5-10 10v119.6c0 5.5 4.5 10 10 10h78l-38.9 38.9c-3.9 3.9-3.9 10.2 0 14.1 3.9 3.9 10.2 3.9 14.1 0l47.8-47.8 47.9 47.8c2 2 4.5 2.9 7.1 2.9 2.6 0 5.1-1 7.1-2.9 3.9-3.9 3.9-10.2 0-14.1l-38.9-38.9h78c5.5 0 10-4.5 10-10v-21.8l34.6 6.4c.6.1 1.2.2 1.8.2 2.3 0 4.6-.8 6.4-2.3 2.3-1.9 3.6-4.7 3.6-7.7v-69.1c.1-3-1.2-5.8-3.5-7.7zM168.8 20c23.7 0 42.9 19.3 42.9 42.9 0 23.7-19.3 42.9-42.9 42.9s-42.9-19.3-42.9-42.9S145.1 20 168.8 20zm-53 76.9c3 4.7 6.7 9 10.8 12.8H105c4.2-3.8 7.8-8.1 10.8-12.8zM20 62.9C20 39.3 39.3 20 62.9 20s42.9 19.3 42.9 42.9c0 23.7-19.3 42.9-42.9 42.9S20 86.6 20 62.9zm186.9 166.3H24.8v-99.6H207v99.6zm46.5-27.2l-26.5-4.9v-35.3l26.5-4.9V202zm0 0"/></svg>