<svg id="Layer_1" xmlns="http://www.w3.org/2000/svg" viewBox="0 0 18.3 24"><style>.st0{fill:#fff}</style><path class="st0" d="M7.5 3.6c2.1 3 4.1 6 6.2 9 .6-.4 1.3-.9 1.9-1.3-2.1-3-4.1-6-6.2-9-.6.4-1.2.9-1.9 1.3zm5.8 9.4C10.1 11.1 7 9.3 3.9 7.4c-.4.7-.8 1.3-1.2 2 3.1 1.9 6.3 3.7 9.4 5.6.4-.7.8-1.4 1.2-2zm3.2-13c-.8.1-1.5.3-2.3.4L16 11.2c.8-.1 1.5-.3 2.3-.4L16.5 0zm-4.6 15.6c-3.5-1-7-1.9-10.6-2.8-.2.8-.4 1.5-.6 2.3 3.5.9 7 1.9 10.6 2.8.2-.8.4-1.5.6-2.3zm-1 6.1H0V24h10.9v-2.3zm.3-3c-3.6-.3-7.3-.7-10.9-1-.1.8-.1 1.6-.2 2.3 3.6.3 7.3.7 10.9 1 .1-.8.1-1.5.2-2.3zm0 0"/></svg>