<svg id="Layer_1" xmlns="http://www.w3.org/2000/svg" viewBox="0 0 390.3 391.2"><path d="M306.2 204.7c-29.9 0-55-24.2-55-55 0-29.9 24.2-55 55-55 29.9 0 55 24.2 55 55 0 30.9-25 55-55 55zm0-92.3c-20.8 0-38.3 17.4-38.3 38.3s17.4 38.3 38.3 38.3 38.3-17.4 38.3-38.3c.1-20.9-16.7-38.3-38.3-38.3zm0 0M357 391.2H255.4v-53.3H223v-73.2c0-29.1 18.3-52.4 40.8-52.4h85.8c22.5 0 40.8 23.3 40.8 52.4v73.2h-32.5v53.3h-.9zm-85.7-16.6h69v-53.3h32.5v-57.4c0-19.1-10.8-35.8-24.2-35.8h-84.9c-13.3 0-24.2 16.6-24.2 35.8v57.4H272v53.3h-.7zm0 0M83.2 204.7c-29.9 0-55-24.2-55-54.1 0-30.8 25-55 55-55s55 24.2 55 55c-.9 30-25.1 54.1-55 54.1zm0-92.3c-21.6 0-38.3 16.6-38.3 38.3 0 21.7 17.4 38.3 38.3 38.3s38.3-17.4 38.3-38.3-17.5-38.3-38.3-38.3zm0 0M133.9 391.2H32.4v-53.3H0v-73.2c0-29.1 18.3-52.4 40.8-52.4h85.7c22.5 0 40.8 23.3 40.8 52.4v73.2h-32.5v53.3h-.9zm-85.7-16.6h69v-53.3h32.5v-57.4c0-19.1-10.8-35.8-24.2-35.8H39.9c-13.3 0-24.2 16.6-24.2 35.8v57.4h32.5v53.3zm0 0M148.1 109.9V89.1h-5.8c-4.2 0-8.3-3.4-8.3-8.3V8.3c0-4.2 3.4-8.3 8.3-8.3h120.6c4.2 0 8.3 3.4 8.3 8.3v73.2c0 4.2-3.4 8.3-8.3 8.3H188l-26.6 26.6c-4.7 4-13.3 1.7-13.3-6.5zm2.5-36.6h5.8c4.2 0 8.3 3.4 8.3 8.3v9.1l15-15c1.7-1.7 3.4-2.5 5.8-2.5h69.9V16.6H150.6v56.7zm0 0"/></svg>