<svg id="Layer_1" xmlns="http://www.w3.org/2000/svg" viewBox="0 0 371.1 212"><style>.st0{fill:#fff}</style><path class="st0" d="M137.7 97.8h-25.2V72.6c0-3.3-2.7-5.9-5.9-5.9H78.1c-3.3 0-5.9 2.7-5.9 5.9v25.2H47c-3.3 0-5.9 2.7-5.9 5.9v28.4c0 3.3 2.7 5.9 5.9 5.9h25.2v25.2c0 3.3 2.7 5.9 5.9 5.9h28.3c3.3 0 5.9-2.7 5.9-5.9V138h25.2c3.3 0 5.9-2.7 5.9-5.9v-28.4c.2-3.3-2.4-5.9-5.7-5.9zm-5.9 28.4h-25.2c-3.3 0-5.9 2.7-5.9 5.9v25.2H84.1v-25.2c0-3.3-2.7-5.9-5.9-5.9H52.9v-16.6h25.2c3.3 0 5.9-2.7 5.9-5.9V78.4h16.6v25.2c0 3.3 2.7 5.9 5.9 5.9h25.2l.1 16.7zM201.5 97.8h-31.9c-3.3 0-5.9 2.7-5.9 5.9s2.7 5.9 5.9 5.9h31.9c3.3 0 5.9-2.7 5.9-5.9s-2.7-5.9-5.9-5.9z"/><path class="st0" d="M179.6 1.7H165c-3.3 0-5.9 2.7-5.9 5.9v17.9H92.3C41.5 25.6 0 67 0 117.9s41.5 92.3 92.3 92.3c33.8 0 64.5-18.1 80.8-47.6h24.8c16.3 29.4 47 47.6 80.8 47.6 50.9 0 92.3-41.5 92.3-92.3s-41.5-92.3-92.3-92.3H212V7.7c0-3.3-2.7-5.9-5.9-5.9h-14.6m87.2 196.6c-30.6 0-58.1-17-72-44.4-1-2-3-3.3-5.3-3.3h-31.9c-2.2 0-4.3 1.2-5.3 3.3-13.8 27.3-41.3 44.4-72 44.4-44.4 0-80.5-36.1-80.5-80.5s36.1-80.5 80.5-80.5H165c3.3 0 5.9-2.7 5.9-5.9v-18H200v12h-11.4c-3.3 0-5.9 2.7-5.9 5.9s2.7 5.9 5.9 5.9h90c44.4 0 80.5 36.1 80.5 80.5s-36 80.6-80.4 80.6z"/><path class="st0" d="M278.7 102.2c9.8 0 17.8-8 17.8-17.8s-8-17.8-17.8-17.8-17.8 8-17.8 17.8 8 17.8 17.8 17.8zm0-23.7c3.3 0 5.9 2.7 5.9 5.9 0 3.3-2.7 5.9-5.9 5.9-3.3 0-5.9-2.7-5.9-5.9s2.7-5.9 5.9-5.9zM245.2 100.2c-9.8 0-17.8 8-17.8 17.8s8 17.8 17.8 17.8 17.8-8 17.8-17.8-8-17.8-17.8-17.8zm0 23.6c-3.3 0-5.9-2.7-5.9-5.9 0-3.3 2.7-5.9 5.9-5.9 3.3 0 5.9 2.7 5.9 5.9.1 3.2-2.6 5.9-5.9 5.9zM278.7 133.6c-9.8 0-17.8 8-17.8 17.8s8 17.8 17.8 17.8 17.8-8 17.8-17.8-8-17.8-17.8-17.8zm0 23.7c-3.3 0-5.9-2.7-5.9-5.9 0-3.3 2.7-5.9 5.9-5.9 3.3 0 5.9 2.7 5.9 5.9.1 3.3-2.6 5.9-5.9 5.9zM312.2 100.2c-9.8 0-17.8 8-17.8 17.8s8 17.8 17.8 17.8 17.8-8 17.8-17.8-8-17.8-17.8-17.8zm0 23.6c-3.3 0-5.9-2.7-5.9-5.9 0-3.3 2.7-5.9 5.9-5.9s5.9 2.7 5.9 5.9-2.6 5.9-5.9 5.9z"/></svg>