<svg id="Layer_1" xmlns="http://www.w3.org/2000/svg" xmlns:xlink="http://www.w3.org/1999/xlink" viewBox="0 0 276 277"><style>.st0{clip-path:url(#SVGID_2_)}</style><defs><path id="SVGID_1_" d="M0 0h276v277H0z"/></defs><clipPath id="SVGID_2_"><use xlink:href="#SVGID_1_" overflow="visible"/></clipPath><path class="st0" d="M273.1 73.5l-34.8-34.8-34.8-34.8C201.6 2 199.1 1 196.4 1c-2.7 0-5.2 1.1-7.1 2.9L21 172.3c-1.4 1.4-2.3 3.1-2.7 5.1L.2 265c-.7 3.3.3 6.7 2.7 9.1C4.8 276 7.4 277 10 277c.7 0 1.4-.1 2-.2l87.7-18.1c1.9-.4 3.7-1.3 5-2.7L273.1 87.6c3.9-3.9 3.9-10.2 0-14.1zm-239 126l43.3 43.3-54.6 11.3 11.3-54.6zm63.6 35.3l-55.4-55.4L196.4 25.1 217 45.7 123.7 139c-3.9 3.9-3.9 10.2 0 14.1 1.9 2 4.5 2.9 7.1 2.9 2.6 0 5.1-1 7.1-2.9l93.3-93.3 20.6 20.6L97.7 234.8zm0 0"/></svg>