<?xml version="1.0" encoding="utf-8"?>
<!-- Generator: Adobe Illustrator 19.2.1, SVG Export Plug-In . SVG Version: 6.00 Build 0)  -->
<svg version="1.1" id="Layer_1" xmlns="http://www.w3.org/2000/svg" xmlns:xlink="http://www.w3.org/1999/xlink" x="0px" y="0px"
	 viewBox="0 0 390.3 391.2" style="enable-background:new 0 0 390.3 391.2;" xml:space="preserve">
<g>
	<path d="M306.2,204.7c-29.9,0-55-24.2-55-55c0-29.9,24.2-55,55-55c29.9,0,55,24.2,55,55C361.2,180.6,336.2,204.7,306.2,204.7
		L306.2,204.7z M306.2,112.4c-20.8,0-38.3,17.4-38.3,38.3c0,20.9,17.4,38.3,38.3,38.3c20.9,0,38.3-17.4,38.3-38.3
		C344.6,129.8,327.8,112.4,306.2,112.4L306.2,112.4z M306.2,112.4"/>
	<path d="M357,391.2H255.4v-53.3H223v-73.2c0-29.1,18.3-52.4,40.8-52.4h85.8c22.5,0,40.8,23.3,40.8,52.4v73.2h-32.5v53.3H357z
		 M271.3,374.6h69v-53.3h32.5v-57.4c0-19.1-10.8-35.8-24.2-35.8h-84.9c-13.3,0-24.2,16.6-24.2,35.8v57.4h32.5v53.3H271.3z
		 M271.3,374.6"/>
	<path d="M83.2,204.7c-29.9,0-55-24.2-55-54.1c0-30.8,25-55,55-55s55,24.2,55,55C137.3,180.6,113.1,204.7,83.2,204.7L83.2,204.7z
		 M83.2,112.4c-21.6,0-38.3,16.6-38.3,38.3c0,21.7,17.4,38.3,38.3,38.3s38.3-17.4,38.3-38.3C121.5,129.8,104,112.4,83.2,112.4
		L83.2,112.4z M83.2,112.4"/>
	<path d="M133.9,391.2H32.4v-53.3H0v-73.2c0-29.1,18.3-52.4,40.8-52.4h85.7c22.5,0,40.8,23.3,40.8,52.4v73.2h-32.5v53.3H133.9z
		 M48.2,374.6h69v-53.3h32.5v-57.4c0-19.1-10.8-35.8-24.2-35.8H39.9c-13.3,0-24.2,16.6-24.2,35.8v57.4h32.5V374.6z M48.2,374.6"/>
	<path d="M148.1,109.9V89.1h-5.8c-4.2,0-8.3-3.4-8.3-8.3V8.3c0-4.2,3.4-8.3,8.3-8.3h120.6c4.2,0,8.3,3.4,8.3,8.3v73.2
		c0,4.2-3.4,8.3-8.3,8.3H188l-26.6,26.6C156.7,120.4,148.1,118.1,148.1,109.9L148.1,109.9z M150.6,73.3h5.8c4.2,0,8.3,3.4,8.3,8.3
		v9.1l15-15c1.7-1.7,3.4-2.5,5.8-2.5h69.9V16.6H150.6V73.3z M150.6,73.3"/>
</g>
</svg>
