<?xml version="1.0" encoding="utf-8"?>
<!DOCTYPE svg PUBLIC "-//W3C//DTD SVG 1.1//EN" "http://www.w3.org/Graphics/SVG/1.1/DTD/svg11.dtd">
<svg xmlns="http://www.w3.org/2000/svg" xmlns:xlink="http://www.w3.org/1999/xlink" version="1.1" viewBox="0 0 512 512" enable-background="new 0 0 512 512" width="512px" height="512px">
  <g>
    <path d="m480.1,11v79.5h-144.8c-4.9-28.3-28.6-49-56.4-49-28.6,0-51.5,21.4-56.4,49h-43.5c-4.7-28.3-27.7-49-56.4-49-28.6,0-51.5,21.4-56.4,49h-34.3v-79.5h-20.9v490h20.9v-79.5h34.3c4.9,28.3 28.6,49 56.4,49 28.6,0 51.5-21.4 56.4-49h28c4.9,28.3 28.6,49 56.4,49 27.7,0 50.5-21.4 56.1-49h160.8v79.5h20.7v-490h-20.9zm-201.2,53.4c20.9,0 36.5,16.3 36.5,38.1 0,20.7-16.7,38.1-36.5,38.1s-36.5-17.4-36.5-38.1 16.7-38.1 36.5-38.1zm-156.3,0c20.9,0 36.5,16.3 36.5,38.1 0,20.7-16.7,38.1-36.5,38.1-19.8,0-36.5-17.4-36.5-38.1s16.6-38.1 36.5-38.1zm-56.4,47.9c4.9,28.3 28.6,49 56.4,49 28.7,0 51.7-20.7 56.4-49h43.6c4.9,28.3 28.6,49 56.4,49 28.7,0 51.7-20.7 56.4-49h144.8v132.8h-28.1c-4.9-28.3-28.6-49-56.4-49-28.7,0-51.7,20.7-56.4,49h-66.5c-4.7-28.3-27.7-49-56.4-49s-51.7,20.7-56.4,49h-128.1v-132.8h34.3zm366,143.7c0,20.7-16.7,38.1-36.5,38.1s-36.5-17.4-36.5-38.1 16.7-38.1 36.5-38.1c20.9,0 36.5,17.4 36.5,38.1zm-179.3,0c0,20.7-16.7,38.1-36.5,38.1s-36.5-17.4-36.5-38.1 16.7-38.1 36.5-38.1 36.5,17.4 36.5,38.1zm-130.3,192.7c-19.8,0-36.5-17.4-36.5-38.1 0-20.7 16.7-38.1 36.5-38.1 20.9,0 36.5,17.4 36.5,38.1-0.1,20.7-16.7,38.1-36.5,38.1zm140.7,0c-19.8,0-36.5-17.4-36.5-38.1 0-20.7 16.7-38.1 36.5-38.1s36.5,17.4 36.5,38.1c0,20.7-16.7,38.1-36.5,38.1zm56.4-49c-4.7-28.3-27.7-49-56.4-49-28.6,0-51.5,21.4-56.4,49h-27.9c-4.7-28.3-27.7-49-56.4-49-28.6,0-51.5,21.4-56.4,49h-34.3v-132.8h128.1c4.9,28.3 28.6,49 56.4,49s51.5-20.7 56.4-49h66.5c4.9,28.3 28.6,49 56.4,49s51.5-20.7 56.4-49h28.1v132.8h-160.5z" fill="#FFFFFF"/>
  </g>
</svg>
