<?xml version="1.0" encoding="iso-8859-1"?>
<!-- Generator: Adobe Illustrator 18.0.0, SVG Export Plug-In . SVG Version: 6.00 Build 0)  -->
<!DOCTYPE svg PUBLIC "-//W3C//DTD SVG 1.1//EN" "http://www.w3.org/Graphics/SVG/1.1/DTD/svg11.dtd">
<svg xmlns="http://www.w3.org/2000/svg" xmlns:xlink="http://www.w3.org/1999/xlink" version="1.1" id="Capa_1" x="0px" y="0px" viewBox="0 0 466.5 466.5" style="enable-background:new 0 0 466.5 466.5;" xml:space="preserve" width="512px" height="512px">
<g>
	<path d="M342.25,0h-218C100.953,0,82,18.953,82,42.25v382c0,23.297,18.953,42.25,42.25,42.25h218   c23.297,0,42.25-18.953,42.25-42.25v-382C384.5,18.953,365.547,0,342.25,0z M376,424.25c0,18.609-15.141,33.75-33.75,33.75h-218   c-18.61,0-33.75-15.141-33.75-33.75V169.58h231.9c2.348,0,4.25-1.902,4.25-4.25c0-2.348-1.902-4.25-4.25-4.25H90.5V42.25   c0-18.609,15.14-33.75,33.75-33.75h218C360.859,8.5,376,23.641,376,42.25V424.25z" fill="#FFFFFF"/>
	<path d="M344.979,46H114.313c-7.857,0-14.25,6.393-14.25,14.25v58c0,7.857,6.393,14.25,14.25,14.25h230.666   c7.857,0,14.25-6.393,14.25-14.25v-58C359.229,52.393,352.837,46,344.979,46z M344.979,124H114.313c-3.17,0-5.75-2.579-5.75-5.75   V82.585h55c2.347,0,4.25-1.902,4.25-4.25c0-2.348-1.903-4.25-4.25-4.25h-55V60.25c0-3.171,2.58-5.75,5.75-5.75h230.666   c3.171,0,5.75,2.579,5.75,5.75v42.333h-98.825c-2.348,0-4.25,1.902-4.25,4.25c0,2.348,1.902,4.25,4.25,4.25h98.825v7.167   C350.729,121.421,348.15,124,344.979,124z" fill="#FFFFFF"/>
	<path d="M160.107,188.006h-39.538c-7.618,0-13.816,6.198-13.816,13.816v39.538c0,7.618,6.198,13.816,13.816,13.816h39.538   c7.618,0,13.816-6.198,13.816-13.816v-39.538C173.924,194.204,167.726,188.006,160.107,188.006z M165.424,241.36   c0,2.932-2.385,5.316-5.316,5.316h-39.538c-2.932,0-5.316-2.385-5.316-5.316v-39.538c0-2.932,2.385-5.316,5.316-5.316h39.538   c2.932,0,5.316,2.385,5.316,5.316V241.36z" fill="#FFFFFF"/>
	<path d="M250.666,188.006h-39.54c-7.618,0-13.816,6.198-13.816,13.816v39.538c0,7.618,6.198,13.816,13.816,13.816h39.54   c7.618,0,13.815-6.198,13.815-13.816v-39.538C264.481,194.204,258.284,188.006,250.666,188.006z M255.981,241.36   c0,2.932-2.385,5.316-5.315,5.316h-39.54c-2.931,0-5.316-2.385-5.316-5.316v-39.538c0-2.932,2.385-5.316,5.316-5.316h39.54   c2.931,0,5.315,2.385,5.315,5.316V241.36z" fill="#FFFFFF"/>
	<path d="M341.222,188.006h-39.537c-7.618,0-13.816,6.198-13.816,13.816v39.538c0,7.618,6.198,13.816,13.816,13.816h39.537   c7.618,0,13.816-6.198,13.816-13.816v-39.538C355.038,194.204,348.84,188.006,341.222,188.006z M346.538,241.36   c0,2.932-2.385,5.316-5.316,5.316h-39.537c-2.932,0-5.316-2.385-5.316-5.316v-39.538c0-2.932,2.385-5.316,5.316-5.316h39.537   c2.932,0,5.316,2.385,5.316,5.316V241.36z" fill="#FFFFFF"/>
	<path d="M160.107,270.593h-39.538c-7.618,0-13.816,6.197-13.816,13.815v39.539c0,7.618,6.198,13.815,13.816,13.815h39.538   c7.618,0,13.816-6.197,13.816-13.815v-39.539C173.924,276.79,167.726,270.593,160.107,270.593z M165.424,323.947   c0,2.931-2.385,5.315-5.316,5.315h-39.538c-2.932,0-5.316-2.385-5.316-5.315v-39.539c0-2.931,2.385-5.315,5.316-5.315h39.538   c2.932,0,5.316,2.385,5.316,5.315V323.947z" fill="#FFFFFF"/>
	<path d="M250.666,270.593h-39.54c-7.618,0-13.816,6.197-13.816,13.815v39.539c0,7.618,6.198,13.815,13.816,13.815h39.54   c7.618,0,13.815-6.197,13.815-13.815v-39.539C264.481,276.79,258.284,270.593,250.666,270.593z M255.981,323.947   c0,2.931-2.385,5.315-5.315,5.315h-39.54c-2.931,0-5.316-2.385-5.316-5.315v-39.539c0-2.931,2.385-5.315,5.316-5.315h39.54   c2.931,0,5.315,2.385,5.315,5.315V323.947z" fill="#FFFFFF"/>
	<path d="M341.222,270.593h-39.537c-7.618,0-13.816,6.197-13.816,13.815v120.344c0,7.618,6.198,13.815,13.816,13.815h39.537   c7.618,0,13.816-6.197,13.816-13.815V284.408C355.038,276.79,348.84,270.593,341.222,270.593z M346.538,404.752   c0,2.931-2.385,5.315-5.316,5.315h-39.537c-2.932,0-5.316-2.385-5.316-5.315V284.408c0-2.931,2.385-5.315,5.316-5.315h23.966   v63.228c0,2.348,1.902,4.25,4.25,4.25c2.348,0,4.25-1.902,4.25-4.25v-63.228h7.071c2.932,0,5.316,2.385,5.316,5.315V404.752z" fill="#FFFFFF"/>
	<path d="M160.107,350.309h-39.538c-7.618,0-13.816,6.198-13.816,13.816v39.538c0,7.618,6.198,13.816,13.816,13.816h39.538   c7.618,0,13.816-6.198,13.816-13.816v-39.538C173.924,356.507,167.726,350.309,160.107,350.309z M165.424,403.663   c0,2.932-2.385,5.316-5.316,5.316h-39.538c-2.932,0-5.316-2.385-5.316-5.316v-39.538c0-2.932,2.385-5.316,5.316-5.316h39.538   c2.932,0,5.316,2.385,5.316,5.316V403.663z" fill="#FFFFFF"/>
	<path d="M250.666,350.309h-39.54c-7.618,0-13.816,6.198-13.816,13.816v39.538c0,7.618,6.198,13.816,13.816,13.816h39.54   c7.618,0,13.815-6.198,13.815-13.816v-39.538C264.481,356.507,258.284,350.309,250.666,350.309z M255.981,403.663   c0,2.932-2.385,5.316-5.315,5.316h-39.54c-2.931,0-5.316-2.385-5.316-5.316v-39.538c0-2.932,2.385-5.316,5.316-5.316h39.54   c2.931,0,5.315,2.385,5.315,5.316V403.663z" fill="#FFFFFF"/>
</g>
<g>
</g>
<g>
</g>
<g>
</g>
<g>
</g>
<g>
</g>
<g>
</g>
<g>
</g>
<g>
</g>
<g>
</g>
<g>
</g>
<g>
</g>
<g>
</g>
<g>
</g>
<g>
</g>
<g>
</g>
</svg>
