<?xml version="1.0" encoding="utf-8"?>
<!-- Generator: Adobe Illustrator 19.2.1, SVG Export Plug-In . SVG Version: 6.00 Build 0)  -->
<svg version="1.1" id="Layer_1" xmlns="http://www.w3.org/2000/svg" xmlns:xlink="http://www.w3.org/1999/xlink" x="0px" y="0px"
	 viewBox="0 0 25.6 19.2" style="enable-background:new 0 0 25.6 19.2;" xml:space="preserve">
<style type="text/css">
	.st0{fill:#FFFFFF;}
</style>
<g>
	<path class="st0" d="M24,0H1.6C0.7,0,0,0.7,0,1.6v16c0,0.9,0.7,1.6,1.6,1.6H24c0.9,0,1.6-0.7,1.6-1.6v-16C25.6,0.7,24.9,0,24,0
		L24,0z M24,17.6H1.6v-4.9l5.2-5.2l7.5,7.5c0.3,0.3,0.8,0.3,1.1,0c0.3-0.3,0.3-0.8,0-1.1l-1.7-1.7l3.5-3.5l6.8,6.8V17.6z M24,13.3
		l-6.2-6.2c0,0,0-0.1-0.1-0.1c-0.2-0.2-0.4-0.2-0.6-0.2c-0.2,0-0.4,0.1-0.6,0.2c0,0-0.1,0.1-0.1,0.1l-3.9,3.9L7.4,5.8c0,0,0,0,0,0
		C7.2,5.7,7,5.6,6.8,5.6c-0.2,0-0.4,0.1-0.6,0.2c0,0,0,0,0,0l-4.6,4.6V1.6H24V13.3z M12.4,8c1.3,0,2.4-1.1,2.4-2.4
		c0-1.3-1.1-2.4-2.4-2.4c-1.3,0-2.4,1.1-2.4,2.4C10,6.9,11.1,8,12.4,8L12.4,8z M12.4,4.8c0.4,0,0.8,0.4,0.8,0.8
		c0,0.4-0.4,0.8-0.8,0.8c-0.4,0-0.8-0.4-0.8-0.8C11.6,5.2,12,4.8,12.4,4.8L12.4,4.8z M12.4,4.8"/>
</g>
</svg>
