<?xml version="1.0" encoding="utf-8"?>
<!-- Generator: Adobe Illustrator 19.2.1, SVG Export Plug-In . SVG Version: 6.00 Build 0)  -->
<svg version="1.1" id="Layer_1" xmlns="http://www.w3.org/2000/svg" xmlns:xlink="http://www.w3.org/1999/xlink" x="0px" y="0px"
	 viewBox="0 0 371.1 212" style="enable-background:new 0 0 371.1 212;" xml:space="preserve">
<style type="text/css">
	.st0{fill:#FFFFFF;}
</style>
<g>
	<path class="st0" d="M137.7,97.8h-25.2V72.6c0-3.3-2.7-5.9-5.9-5.9H78.1c-3.3,0-5.9,2.7-5.9,5.9v25.2H47c-3.3,0-5.9,2.7-5.9,5.9
		v28.4c0,3.3,2.7,5.9,5.9,5.9h25.2v25.2c0,3.3,2.7,5.9,5.9,5.9h28.3c3.3,0,5.9-2.7,5.9-5.9v-25.2h25.2c3.3,0,5.9-2.7,5.9-5.9v-28.4
		C143.6,100.4,141,97.8,137.7,97.8z M131.8,126.2h-25.2c-3.3,0-5.9,2.7-5.9,5.9v25.2H84.1v-25.2c0-3.3-2.7-5.9-5.9-5.9H52.9v-16.6
		h25.2c3.3,0,5.9-2.7,5.9-5.9V78.4h16.6v25.2c0,3.3,2.7,5.9,5.9,5.9h25.2L131.8,126.2L131.8,126.2z"/>
	<path class="st0" d="M201.5,97.8h-31.9c-3.3,0-5.9,2.7-5.9,5.9s2.7,5.9,5.9,5.9h31.9c3.3,0,5.9-2.7,5.9-5.9S204.7,97.8,201.5,97.8
		L201.5,97.8z"/>
	<path class="st0" d="M179.6,1.7H165c-3.3,0-5.9,2.7-5.9,5.9v17.9H92.3C41.5,25.6,0,67,0,117.9s41.5,92.3,92.3,92.3
		c33.8,0,64.5-18.1,80.8-47.6h24.8c16.3,29.4,47,47.6,80.8,47.6c50.9,0,92.3-41.5,92.3-92.3s-41.5-92.3-92.3-92.3l0,0H212V7.7
		c0-3.3-2.7-5.9-5.9-5.9h-14.6 M278.7,198.4c-30.6,0-58.1-17-72-44.4c-1-2-3-3.3-5.3-3.3h-31.9c-2.2,0-4.3,1.2-5.3,3.3
		c-13.8,27.3-41.3,44.4-72,44.4c-44.4,0-80.5-36.1-80.5-80.5s36.1-80.5,80.5-80.5H165c3.3,0,5.9-2.7,5.9-5.9V13.5h29.1v12h-11.4
		c-3.3,0-5.9,2.7-5.9,5.9s2.7,5.9,5.9,5.9h90c44.4,0,80.5,36.1,80.5,80.5S323.1,198.4,278.7,198.4z"/>
	<path class="st0" d="M278.7,102.2c9.8,0,17.8-8,17.8-17.8s-8-17.8-17.8-17.8c-9.8,0-17.8,8-17.8,17.8S268.9,102.2,278.7,102.2z
		 M278.7,78.5c3.3,0,5.9,2.7,5.9,5.9c0,3.3-2.7,5.9-5.9,5.9c-3.3,0-5.9-2.7-5.9-5.9C272.8,81.2,275.5,78.5,278.7,78.5z"/>
	<path class="st0" d="M245.2,100.2c-9.8,0-17.8,8-17.8,17.8s8,17.8,17.8,17.8s17.8-8,17.8-17.8S255,100.2,245.2,100.2z M245.2,123.8
		c-3.3,0-5.9-2.7-5.9-5.9c0-3.3,2.7-5.9,5.9-5.9c3.3,0,5.9,2.7,5.9,5.9C251.2,121.1,248.5,123.8,245.2,123.8z"/>
	<path class="st0" d="M278.7,133.6c-9.8,0-17.8,8-17.8,17.8s8,17.8,17.8,17.8c9.8,0,17.8-8,17.8-17.8S288.5,133.6,278.7,133.6z
		 M278.7,157.3c-3.3,0-5.9-2.7-5.9-5.9c0-3.3,2.7-5.9,5.9-5.9c3.3,0,5.9,2.7,5.9,5.9C284.7,154.7,282,157.3,278.7,157.3z"/>
	<path class="st0" d="M312.2,100.2c-9.8,0-17.8,8-17.8,17.8s8,17.8,17.8,17.8s17.8-8,17.8-17.8S322,100.2,312.2,100.2z M312.2,123.8
		c-3.3,0-5.9-2.7-5.9-5.9c0-3.3,2.7-5.9,5.9-5.9s5.9,2.7,5.9,5.9C318.1,121.1,315.5,123.8,312.2,123.8z"/>
</g>
</svg>
