<?xml version="1.0" encoding="utf-8"?>
<!-- Generator: Adobe Illustrator 19.2.1, SVG Export Plug-In . SVG Version: 6.00 Build 0)  -->
<svg version="1.1" id="Layer_1" xmlns="http://www.w3.org/2000/svg" xmlns:xlink="http://www.w3.org/1999/xlink" x="0px" y="0px"
	 viewBox="0 0 512 512" style="enable-background:new 0 0 512 512;" xml:space="preserve">
<style type="text/css">
	.st0{fill:#FFFFFF;}
</style>
<g>
	<path class="st0" d="M190,293.4h-34.8v-34.8c0-4.5-3.7-8.2-8.2-8.2h-39.2c-4.5,0-8.2,3.7-8.2,8.2v34.8H64.9c-4.5,0-8.2,3.7-8.2,8.2
		v39.2c0,4.5,3.7,8.2,8.2,8.2h34.8v34.8c0,4.5,3.7,8.2,8.2,8.2H147c4.5,0,8.2-3.7,8.2-8.2v-34.8H190c4.5,0,8.2-3.7,8.2-8.2v-39.2
		C198.1,297,194.5,293.4,190,293.4z M181.8,332.6H147c-4.5,0-8.2,3.7-8.2,8.2v34.8H116v-34.8c0-4.5-3.7-8.2-8.2-8.2H73v-22.9h34.8
		c4.5,0,8.2-3.7,8.2-8.2v-34.8h22.9v34.8c0,4.5,3.7,8.2,8.2,8.2h34.8V332.6z"/>
	<path class="st0" d="M278,293.4H234c-4.5,0-8.2,3.7-8.2,8.2s3.7,8.2,8.2,8.2H278c4.5,0,8.2-3.7,8.2-8.2S282.5,293.4,278,293.4
		L278,293.4z"/>
	<path class="st0" d="M247.8,160.9h-20.1c-4.5,0-8.2,3.7-8.2,8.2v24.7h-92.1C57.2,193.8,0,250.9,0,321.2s57.2,127.4,127.4,127.4
		c46.7,0,89-25,111.5-65.7h34.2c22.5,40.6,64.8,65.7,111.5,65.7c70.3,0,127.4-57.2,127.4-127.4s-57.2-127.4-127.4-127.4v0h-92.1
		v-24.7c0-4.5-3.7-8.2-8.2-8.2h-20.1 M384.6,432.2c-42.2,0-80.2-23.4-99.3-61.2c-1.4-2.8-4.2-4.5-7.3-4.5H234
		c-3.1,0-5.9,1.7-7.3,4.5c-19,37.7-57,61.2-99.3,61.2c-61.2,0-111.1-49.8-111.1-111.1s49.8-111.1,111.1-111.1h100.3
		c4.5,0,8.2-3.7,8.2-8.2v-24.7h40.2v16.5h-15.7c-4.5,0-8.2,3.7-8.2,8.2c0,4.5,3.7,8.2,8.2,8.2h124.2c61.2,0,111.1,49.8,111.1,111.1
		S445.8,432.2,384.6,432.2z"/>
	<path class="st0" d="M384.6,299.5c13.5,0,24.5-11,24.5-24.5c0-13.5-11-24.5-24.5-24.5s-24.5,11-24.5,24.5S371.1,299.5,384.6,299.5z
		 M384.6,266.8c4.5,0,8.2,3.7,8.2,8.2s-3.7,8.2-8.2,8.2s-8.2-3.7-8.2-8.2S380.1,266.8,384.6,266.8z"/>
	<path class="st0" d="M338.4,296.7c-13.5,0-24.5,11-24.5,24.5c0,13.5,11,24.5,24.5,24.5c13.5,0,24.5-11,24.5-24.5
		C362.9,307.7,351.9,296.7,338.4,296.7z M338.4,329.3c-4.5,0-8.2-3.7-8.2-8.2s3.7-8.2,8.2-8.2s8.2,3.7,8.2,8.2
		S342.9,329.3,338.4,329.3z"/>
	<path class="st0" d="M384.6,342.9c-13.5,0-24.5,11-24.5,24.5c0,13.5,11,24.5,24.5,24.5s24.5-11,24.5-24.5
		C409.1,353.9,398.1,342.9,384.6,342.9z M384.6,375.6c-4.5,0-8.2-3.7-8.2-8.2s3.7-8.2,8.2-8.2s8.2,3.7,8.2,8.2
		S389.1,375.6,384.6,375.6z"/>
	<path class="st0" d="M430.8,296.7c-13.5,0-24.5,11-24.5,24.5c0,13.5,11,24.5,24.5,24.5c13.5,0,24.5-11,24.5-24.5
		C455.3,307.7,444.3,296.7,430.8,296.7z M430.8,329.3c-4.5,0-8.2-3.7-8.2-8.2s3.7-8.2,8.2-8.2s8.2,3.7,8.2,8.2
		S435.3,329.3,430.8,329.3z"/>
</g>
</svg>
