<?xml version="1.0" encoding="utf-8"?>
<!-- Generator: Adobe Illustrator 19.2.1, SVG Export Plug-In . SVG Version: 6.00 Build 0)  -->
<svg version="1.1" id="Capa_1" xmlns="http://www.w3.org/2000/svg" xmlns:xlink="http://www.w3.org/1999/xlink" x="0px" y="0px"
	 viewBox="0 0 512 512" style="enable-background:new 0 0 512 512;" xml:space="preserve">
<style type="text/css">
	.st0{fill:#FFFFFF;}
</style>
<g>
	<path class="st0" d="M291,432.5H11.2C5,432.5,0,426.9,0,420s5-12.5,11.2-12.5H291c6.2,0,11.2,5.6,11.2,12.5S297.2,432.5,291,432.5z
		"/>
	<path class="st0" d="M500.8,322.5H11.2C5,322.5,0,316.9,0,310s5-12.5,11.2-12.5h489.7c6.2,0,11.2,5.6,11.2,12.5
		S507,322.5,500.8,322.5z"/>
	<path class="st0" d="M291,213.5H11.2C5,213.5,0,207.9,0,201s5-12.5,11.2-12.5H291c6.2,0,11.2,5.6,11.2,12.5S297.2,213.5,291,213.5z
		"/>
	<path class="st0" d="M500.8,103.5H11.2C5,103.5,0,97.9,0,91s5-12.5,11.2-12.5h489.7c6.2,0,11.2,5.6,11.2,12.5
		S507,103.5,500.8,103.5z"/>
</g>
</svg>
