<?xml version="1.0" encoding="utf-8"?>
<!-- Generator: Adobe Illustrator 19.2.1, SVG Export Plug-In . SVG Version: 6.00 Build 0)  -->
<svg version="1.1" id="Layer_1" xmlns="http://www.w3.org/2000/svg" xmlns:xlink="http://www.w3.org/1999/xlink" x="0px" y="0px"
	 viewBox="0 0 276 277" style="enable-background:new 0 0 276 277;" xml:space="preserve">
<style type="text/css">
	.st0{clip-path:url(#SVGID_2_);}
</style>
<g>
	<g>
		<defs>
			<rect id="SVGID_1_" width="276" height="277"/>
		</defs>
		<clipPath id="SVGID_2_">
			<use xlink:href="#SVGID_1_"  style="overflow:visible;"/>
		</clipPath>
		<path class="st0" d="M273.1,73.5l-34.8-34.8c0,0,0,0,0,0c0,0,0,0,0,0L203.5,3.9c-1.9-1.9-4.4-2.9-7.1-2.9c-2.7,0-5.2,1.1-7.1,2.9
			L21,172.3c-1.4,1.4-2.3,3.1-2.7,5.1L0.2,265c-0.7,3.3,0.3,6.7,2.7,9.1C4.8,276,7.4,277,10,277c0.7,0,1.4-0.1,2-0.2l87.7-18.1
			c1.9-0.4,3.7-1.3,5-2.7L273.1,87.6C277,83.7,277,77.4,273.1,73.5L273.1,73.5z M34.1,199.5l43.3,43.3l-54.6,11.3L34.1,199.5z
			 M97.7,234.8l-55.4-55.4L196.4,25.1l20.6,20.6l-93.3,93.3c-3.9,3.9-3.9,10.2,0,14.1c1.9,2,4.5,2.9,7.1,2.9c2.6,0,5.1-1,7.1-2.9
			l93.3-93.3l20.6,20.6L97.7,234.8z M97.7,234.8"/>
	</g>
</g>
</svg>
