<?xml version="1.0" encoding="utf-8"?>
<!-- Generator: Adobe Illustrator 19.2.1, SVG Export Plug-In . SVG Version: 6.00 Build 0)  -->
<svg version="1.1" id="Capa_1" xmlns="http://www.w3.org/2000/svg" xmlns:xlink="http://www.w3.org/1999/xlink" x="0px" y="0px"
	 viewBox="0 0 512 512" style="enable-background:new 0 0 512 512;" xml:space="preserve">
<style type="text/css">
	.st0{fill:#FFFFFF;}
</style>
<g>
	<g>
		<path class="st0" d="M215,256L13.3,457.6c-3.4,3.4-5.1,7.4-5.1,11.8c0,4.4,1.7,8.4,5.1,11.8L39,506.9c3.4,3.4,7.4,5.1,11.8,5.1
			c4.5,0,8.4-1.7,11.8-5.1l239.1-239.1c3.4-3.4,5.1-7.4,5.1-11.8c0-4.4-1.7-8.4-5.1-11.8L62.6,5.1C59.2,1.7,55.2,0,50.8,0
			S42.4,1.7,39,5.1L13.3,30.8c-3.4,3.4-5.1,7.4-5.1,11.8c0,4.4,1.7,8.4,5.1,11.8L215,256z"/>
		<path class="st0" d="M412,256L210.3,457.6c-3.4,3.4-5.1,7.4-5.1,11.8c0,4.4,1.7,8.4,5.1,11.8l25.6,25.7c3.4,3.4,7.4,5.1,11.8,5.1
			c4.5,0,8.4-1.7,11.8-5.1l239.1-239.1c3.4-3.4,5.1-7.4,5.1-11.8c0-4.4-1.7-8.4-5.1-11.8L259.6,5.1c-3.4-3.4-7.3-5.1-11.8-5.1
			c-4.4,0-8.4,1.7-11.8,5.1l-25.6,25.6c-3.4,3.4-5.1,7.4-5.1,11.8c0,4.4,1.7,8.4,5.1,11.8L412,256z"/>
	</g>
</g>
</svg>
