<svg xmlns="http://www.w3.org/2000/svg" id="Capa_1" viewBox="0 0 466.5 466.5" width="512" height="512"><g fill="#FFF"><path d="M342.25 0h-218C100.953 0 82 18.953 82 42.25v382c0 23.297 18.953 42.25 42.25 42.25h218c23.297 0 42.25-18.953 42.25-42.25v-382C384.5 18.953 365.547 0 342.25 0zM376 424.25c0 18.609-15.141 33.75-33.75 33.75h-218c-18.61 0-33.75-15.141-33.75-33.75V169.58h231.9a4.249 4.249 0 0 0 4.25-4.25 4.249 4.249 0 0 0-4.25-4.25H90.5V42.25c0-18.609 15.14-33.75 33.75-33.75h218C360.859 8.5 376 23.641 376 42.25v382z"/><path d="M344.979 46H114.313c-7.857 0-14.25 6.393-14.25 14.25v58c0 7.857 6.393 14.25 14.25 14.25h230.666c7.857 0 14.25-6.393 14.25-14.25v-58c0-7.857-6.392-14.25-14.25-14.25zm0 78H114.313a5.757 5.757 0 0 1-5.75-5.75V82.585h55a4.25 4.25 0 1 0 0-8.5h-55V60.25c0-3.171 2.58-5.75 5.75-5.75h230.666a5.756 5.756 0 0 1 5.75 5.75v42.333h-98.825a4.249 4.249 0 0 0-4.25 4.25 4.249 4.249 0 0 0 4.25 4.25h98.825v7.167a5.756 5.756 0 0 1-5.75 5.75zM160.107 188.006h-39.538c-7.618 0-13.816 6.198-13.816 13.816v39.538c0 7.618 6.198 13.816 13.816 13.816h39.538c7.618 0 13.816-6.198 13.816-13.816v-39.538c.001-7.618-6.197-13.816-13.816-13.816zm5.317 53.354a5.322 5.322 0 0 1-5.316 5.316H120.57a5.322 5.322 0 0 1-5.316-5.316v-39.538a5.322 5.322 0 0 1 5.316-5.316h39.538a5.322 5.322 0 0 1 5.316 5.316v39.538zM250.666 188.006h-39.54c-7.618 0-13.816 6.198-13.816 13.816v39.538c0 7.618 6.198 13.816 13.816 13.816h39.54c7.618 0 13.815-6.198 13.815-13.816v-39.538c0-7.618-6.197-13.816-13.815-13.816zm5.315 53.354a5.321 5.321 0 0 1-5.315 5.316h-39.54a5.322 5.322 0 0 1-5.316-5.316v-39.538a5.322 5.322 0 0 1 5.316-5.316h39.54a5.321 5.321 0 0 1 5.315 5.316v39.538zM341.222 188.006h-39.537c-7.618 0-13.816 6.198-13.816 13.816v39.538c0 7.618 6.198 13.816 13.816 13.816h39.537c7.618 0 13.816-6.198 13.816-13.816v-39.538c0-7.618-6.198-13.816-13.816-13.816zm5.316 53.354a5.322 5.322 0 0 1-5.316 5.316h-39.537a5.322 5.322 0 0 1-5.316-5.316v-39.538a5.322 5.322 0 0 1 5.316-5.316h39.537a5.322 5.322 0 0 1 5.316 5.316v39.538zM160.107 270.593h-39.538c-7.618 0-13.816 6.197-13.816 13.815v39.539c0 7.618 6.198 13.815 13.816 13.815h39.538c7.618 0 13.816-6.197 13.816-13.815v-39.539c.001-7.618-6.197-13.815-13.816-13.815zm5.317 53.354a5.321 5.321 0 0 1-5.316 5.315H120.57a5.321 5.321 0 0 1-5.316-5.315v-39.539a5.321 5.321 0 0 1 5.316-5.315h39.538a5.321 5.321 0 0 1 5.316 5.315v39.539zM250.666 270.593h-39.54c-7.618 0-13.816 6.197-13.816 13.815v39.539c0 7.618 6.198 13.815 13.816 13.815h39.54c7.618 0 13.815-6.197 13.815-13.815v-39.539c0-7.618-6.197-13.815-13.815-13.815zm5.315 53.354a5.321 5.321 0 0 1-5.315 5.315h-39.54a5.322 5.322 0 0 1-5.316-5.315v-39.539a5.321 5.321 0 0 1 5.316-5.315h39.54a5.321 5.321 0 0 1 5.315 5.315v39.539zM341.222 270.593h-39.537c-7.618 0-13.816 6.197-13.816 13.815v120.344c0 7.618 6.198 13.815 13.816 13.815h39.537c7.618 0 13.816-6.197 13.816-13.815V284.408c0-7.618-6.198-13.815-13.816-13.815zm5.316 134.159a5.321 5.321 0 0 1-5.316 5.315h-39.537a5.321 5.321 0 0 1-5.316-5.315V284.408a5.321 5.321 0 0 1 5.316-5.315h23.966v63.228a4.249 4.249 0 0 0 4.25 4.25 4.249 4.249 0 0 0 4.25-4.25v-63.228h7.071a5.321 5.321 0 0 1 5.316 5.315v120.344zM160.107 350.309h-39.538c-7.618 0-13.816 6.198-13.816 13.816v39.538c0 7.618 6.198 13.816 13.816 13.816h39.538c7.618 0 13.816-6.198 13.816-13.816v-39.538c.001-7.618-6.197-13.816-13.816-13.816zm5.317 53.354a5.322 5.322 0 0 1-5.316 5.316H120.57a5.322 5.322 0 0 1-5.316-5.316v-39.538a5.322 5.322 0 0 1 5.316-5.316h39.538a5.322 5.322 0 0 1 5.316 5.316v39.538zM250.666 350.309h-39.54c-7.618 0-13.816 6.198-13.816 13.816v39.538c0 7.618 6.198 13.816 13.816 13.816h39.54c7.618 0 13.815-6.198 13.815-13.816v-39.538c0-7.618-6.197-13.816-13.815-13.816zm5.315 53.354a5.321 5.321 0 0 1-5.315 5.316h-39.54a5.322 5.322 0 0 1-5.316-5.316v-39.538a5.322 5.322 0 0 1 5.316-5.316h39.54a5.321 5.321 0 0 1 5.315 5.316v39.538z"/></g></svg>