<svg id="Layer_1" xmlns="http://www.w3.org/2000/svg" viewBox="0 0 25.6 19.2"><style>.st0{fill:#fff}</style><path class="st0" d="M24 0H1.6C.7 0 0 .7 0 1.6v16c0 .9.7 1.6 1.6 1.6H24c.9 0 1.6-.7 1.6-1.6v-16C25.6.7 24.9 0 24 0zm0 17.6H1.6v-4.9l5.2-5.2 7.5 7.5c.3.3.8.3 1.1 0 .3-.3.3-.8 0-1.1l-1.7-1.7 3.5-3.5 6.8 6.8v2.1zm0-4.3l-6.2-6.2s0-.1-.1-.1c-.2-.2-.4-.2-.6-.2-.2 0-.4.1-.6.2l-.1.1-3.9 3.9-5.1-5.2c-.2-.1-.4-.2-.6-.2-.2 0-.4.1-.6.2l-4.6 4.6V1.6H24v11.7zM12.4 8c1.3 0 2.4-1.1 2.4-2.4 0-1.3-1.1-2.4-2.4-2.4-1.3 0-2.4 1.1-2.4 2.4C10 6.9 11.1 8 12.4 8zm0-3.2c.4 0 .8.4.8.8s-.4.8-.8.8-.8-.4-.8-.8.4-.8.8-.8zm0 0"/></svg>